<mxfile host="app.diagrams.net" modified="2024-06-20T17:15:58.853Z" agent="Mozilla/5.0 (Windows NT 10.0; Win64; x64) AppleWebKit/537.36 (KHTML, like Gecko) Chrome/102.0.0.0 Safari/537.36" version="24.5.5" etag="WOgCbPvFfJ6g8jIYFDT7" type="github">
  <diagram name="PÃ¡gina-1" id="TeJ9xUpTIcXCZ0TfBOWM">
    <mxGraphModel>
      <root>
        <mxCell id="0" />
        <mxCell id="1" parent="0" />
      </root>
    </mxGraphModel>
  </diagram>
</mxfile>
